<svg width="40" height="40" viewBox="0 0 40 40" fill="none" xmlns="http://www.w3.org/2000/svg">
<path d="M5 11.6667V8.33333C5 6.5 6.5 5 8.33333 5H11.6667M28.3333 5H31.6667C33.5 5 35 6.5 35 8.33333V11.6667M35 28.3333V31.6667C35 33.5 33.5 35 31.6667 35H28.3333M11.6667 35H8.33333C6.5 35 5 33.5 5 31.6667V28.3333" stroke="#F0C693" stroke-width="2" stroke-linecap="round" stroke-linejoin="round"/>
<path d="M21.667 11.6667H13.3337C12.4132 11.6667 11.667 12.4128 11.667 13.3333V18.3333C11.667 19.2538 12.4132 20 13.3337 20H21.667C22.5875 20 23.3337 19.2538 23.3337 18.3333V13.3333C23.3337 12.4128 22.5875 11.6667 21.667 11.6667Z" stroke="#F0C693" stroke-width="2" stroke-linecap="round" stroke-linejoin="round"/>
<path d="M26.667 20H18.3337C17.4132 20 16.667 20.7462 16.667 21.6667V26.6667C16.667 27.5871 17.4132 28.3333 18.3337 28.3333H26.667C27.5875 28.3333 28.3337 27.5871 28.3337 26.6667V21.6667C28.3337 20.7462 27.5875 20 26.667 20Z" stroke="#F0C693" stroke-width="2" stroke-linecap="round" stroke-linejoin="round"/>
</svg>
