<svg width="40" height="40" viewBox="0 0 40 40" fill="none" xmlns="http://www.w3.org/2000/svg">
<path d="M13.3333 33.3334C12.8611 33.3334 12.4656 33.1734 12.1467 32.8534C11.8278 32.5334 11.6678 32.1379 11.6667 31.6667V8.33341C11.6667 7.86119 11.8267 7.46564 12.1467 7.14675C12.4667 6.82786 12.8622 6.66786 13.3333 6.66675H26.6667C27.1389 6.66675 27.535 6.82675 27.855 7.14675C28.175 7.46675 28.3344 7.8623 28.3333 8.33341V31.6667C28.3333 32.139 28.1733 32.5351 27.8533 32.8551C27.5333 33.1751 27.1378 33.3345 26.6667 33.3334H13.3333ZM5 28.3334V11.6251C5 11.1529 5.16 10.764 5.48 10.4584C5.8 10.1529 6.19556 10.0001 6.66667 10.0001C7.13778 10.0001 7.53389 10.1601 7.855 10.4801C8.17611 10.8001 8.33556 11.1956 8.33333 11.6667V28.3751C8.33333 28.8473 8.17333 29.2362 7.85333 29.5417C7.53333 29.8473 7.13778 30.0001 6.66667 30.0001C6.19556 30.0001 5.8 29.8401 5.48 29.5201C5.16 29.2001 5 28.8045 5 28.3334ZM31.6667 28.3334V11.6251C31.6667 11.1529 31.8267 10.764 32.1467 10.4584C32.4667 10.1529 32.8622 10.0001 33.3333 10.0001C33.8044 10.0001 34.2006 10.1601 34.5217 10.4801C34.8428 10.8001 35.0022 11.1956 35 11.6667V28.3751C35 28.8473 34.84 29.2362 34.52 29.5417C34.2 29.8473 33.8044 30.0001 33.3333 30.0001C32.8622 30.0001 32.4667 29.8401 32.1467 29.5201C31.8267 29.2001 31.6667 28.8045 31.6667 28.3334ZM15 30.0001H25V10.0001H15V30.0001Z" fill="#F0C693"/>
</svg>
