<svg width="24" height="24" viewBox="0 0 24 24" fill="none" xmlns="http://www.w3.org/2000/svg">
<path d="M11.9997 19.1782L5.64721 23.0142C5.46054 23.1064 5.28729 23.1437 5.12746 23.1262C4.96879 23.1076 4.81421 23.0527 4.66371 22.9617C4.51204 22.8684 4.39771 22.7366 4.32071 22.5662C4.24371 22.3959 4.23671 22.2098 4.29971 22.008L5.99021 14.8155L0.398957 9.96797C0.241457 9.83963 0.137624 9.68622 0.0874573 9.50772C0.0372906 9.32922 0.048374 9.1583 0.120707 8.99497C0.193041 8.83164 0.289291 8.69747 0.409457 8.59247C0.530791 8.49097 0.694124 8.42214 0.899458 8.38597L8.27746 7.74197L11.1545 0.930969C11.2338 0.738469 11.3481 0.599635 11.4975 0.514469C11.6468 0.429302 11.8142 0.386719 11.9997 0.386719C12.1852 0.386719 12.3532 0.429302 12.5037 0.514469C12.6542 0.599635 12.768 0.738469 12.845 0.930969L15.722 7.74197L23.0982 8.38597C23.3047 8.42097 23.4686 8.49039 23.59 8.59422C23.7113 8.69689 23.8081 8.83047 23.8805 8.99497C23.9516 9.1583 23.9621 9.32922 23.912 9.50772C23.8618 9.68622 23.758 9.83963 23.6005 9.96797L18.0092 14.8155L19.6997 22.008C19.765 22.2075 19.7586 22.393 19.6805 22.5645C19.6023 22.736 19.4874 22.8678 19.3357 22.96C19.1864 23.0533 19.0318 23.1087 18.872 23.1262C18.7133 23.1437 18.5406 23.1064 18.354 23.0142L11.9997 19.1782Z" fill="#F0C693"/>
</svg>
