<svg width="40" height="40" viewBox="0 0 40 40" fill="none" xmlns="http://www.w3.org/2000/svg">
<g clip-path="url(#clip0_2070_114)">
<rect width="40" height="40" rx="20" fill="#D41F1F"/>
<path d="M32.7392 25.0393C32.1078 24.2254 31.3903 23.496 30.6964 22.7906C30.4496 22.5397 30.1945 22.2803 29.9486 22.0224C29.2425 21.2812 29.2168 21.0027 29.7758 20.1607C30.1626 19.5803 30.5726 18.9992 30.9692 18.4372C31.3289 17.9273 31.7009 17.4 32.0573 16.8709L32.1305 16.7622C32.8119 15.7498 33.5166 14.703 33.8916 13.4402C33.989 13.107 34.0913 12.6167 33.8575 12.2068C33.6238 11.7971 33.1706 11.6722 32.8499 11.6138C32.6913 11.5849 32.5338 11.581 32.3877 11.581L27.9254 11.5775L27.8886 11.5772C27.2139 11.5772 26.7592 11.9186 26.4987 12.621C26.2499 13.2921 25.9767 14.0068 25.6649 14.6864C25.0444 16.0395 24.2564 17.5981 23.1161 18.8979L23.0679 18.9532C22.9333 19.1086 22.7807 19.2845 22.6692 19.2845C22.6521 19.2845 22.6335 19.281 22.6125 19.2739C22.3763 19.1751 22.2177 18.5611 22.2249 18.2755C22.225 18.2716 22.2251 18.2676 22.2251 18.2637L22.222 12.7258C22.222 12.7066 22.2207 12.6875 22.2184 12.6685C22.1049 11.7682 21.8534 11.2079 20.9033 11.0081C20.8781 11.0027 20.8523 11 20.8266 11H16.1868C15.4309 11 15.0144 11.3299 14.6228 11.8237C14.5171 11.9557 14.2971 12.2305 14.4062 12.5638C14.5168 12.9022 14.8759 12.9745 14.9929 12.998C15.5734 13.1166 15.9006 13.4979 15.9932 14.164C16.155 15.3208 16.1749 16.5555 16.0558 18.0498C16.0226 18.465 15.9569 18.7858 15.8487 19.0598C15.8235 19.1238 15.7344 19.3325 15.6434 19.3325C15.6146 19.3325 15.531 19.3204 15.3788 19.2077C15.0188 18.943 14.7555 18.5652 14.4485 18.0984C13.4041 16.5135 12.5275 14.7675 11.7684 12.7595C11.4869 12.0203 10.9611 11.6065 10.2872 11.5943C9.54676 11.5823 8.87544 11.5764 8.23518 11.5764C7.5356 11.5764 6.88703 11.5834 6.25371 11.5975C5.71155 11.6078 5.33654 11.7823 5.13922 12.1166C4.94157 12.4511 4.95442 12.8906 5.17745 13.4225C6.96279 17.6845 8.58153 20.7832 10.4263 23.4705C11.7188 25.3509 13.0153 26.6525 14.506 27.5663C16.0764 28.531 17.8364 29 19.8862 29C20.1186 29 20.3589 28.9939 20.6011 28.9817C21.7923 28.9194 22.2342 28.4565 22.29 27.2112C22.3166 26.5747 22.3814 25.9073 22.6728 25.3381C22.8567 24.9794 23.0282 24.9794 23.0845 24.9794C23.1931 24.9794 23.3277 25.0331 23.4722 25.1336C23.7315 25.3153 23.9538 25.5588 24.136 25.7714C24.3076 25.9735 24.4772 26.1775 24.647 26.3817C25.0134 26.8224 25.3922 27.2779 25.788 27.71C26.6542 28.6564 27.6085 29.0726 28.7046 28.9823H32.7957C32.8044 28.9823 32.8132 28.9819 32.8219 28.9813C33.2296 28.9524 33.5826 28.7096 33.7906 28.3151C34.0482 27.8265 34.043 27.2031 33.7767 26.6472C33.4745 26.0185 33.0826 25.4815 32.7392 25.0393Z" fill="white"/>
</g>
<defs>
<clipPath id="clip0_2070_114">
<rect width="40" height="40" fill="white"/>
</clipPath>
</defs>
</svg>
