<svg width="90" height="90" viewBox="0 0 90 90" fill="none" xmlns="http://www.w3.org/2000/svg">
<path d="M56.2504 15H56.2129M75.0004 15H74.9629M75.0004 33.75H74.9629M75.0004 56.25H74.9629M15.0004 56.25H14.9629M75.0004 75H74.9629M56.2504 75H56.2129M33.7504 75H33.7129M15.0004 75H14.9629M41.2504 18.75V37.5C41.2504 38.4946 40.8553 39.4484 40.152 40.1517C39.4488 40.8549 38.495 41.25 37.5004 41.25H18.7504C17.7558 41.25 16.802 40.8549 16.0987 40.1517C15.3955 39.4484 15.0004 38.4946 15.0004 37.5V18.75C15.0004 17.7554 15.3955 16.8016 16.0987 16.0984C16.802 15.3951 17.7558 15 18.7504 15H37.5004C38.495 15 39.4488 15.3951 40.152 16.0984C40.8553 16.8016 41.2504 17.7554 41.2504 18.75Z" stroke="#F0C693" stroke-width="2" stroke-linecap="round" stroke-linejoin="round"/>
</svg>
