<svg width="90" height="90" viewBox="0 0 90 90" fill="none" xmlns="http://www.w3.org/2000/svg">
<path d="M56.2501 15H60.0001C60.9947 15 61.9485 15.3951 62.6518 16.0984C63.3551 16.8016 63.7501 17.7554 63.7501 18.75V31.875M75.0001 22.5C75.9901 22.92 76.9501 23.3137 77.8801 23.6812C78.7956 24.0697 79.5192 24.8059 79.8919 25.7278C80.2647 26.6498 80.2559 27.682 79.8676 28.5975L71.2501 48.75M13.5151 26.9887L40.2826 15.33C40.7243 15.1407 41.1995 15.0417 41.68 15.0389C42.1606 15.0361 42.6368 15.1296 43.0806 15.3138C43.5245 15.498 43.927 15.7692 44.2644 16.1113C44.6018 16.4535 44.8673 16.8598 45.0451 17.3062L63.5101 61.9387C63.8939 62.8438 63.907 63.8634 63.5465 64.778C63.186 65.6925 62.4808 66.429 61.5826 66.8287L34.8189 78.4875C34.377 78.6774 33.9015 78.7768 33.4206 78.7799C32.9396 78.783 32.4629 78.6897 32.0186 78.5055C31.5743 78.3213 31.1714 78.0499 30.8338 77.7074C30.4961 77.3648 30.2305 76.9581 30.0526 76.5112L11.5876 31.875C11.2038 30.9699 11.1908 29.9504 11.5513 29.0358C11.9118 28.1212 12.617 27.3885 13.5151 26.9887Z" stroke="#F0C693" stroke-width="2" stroke-linecap="round" stroke-linejoin="round"/>
</svg>
