<svg width="90" height="90" viewBox="0 0 90 90" fill="none" xmlns="http://www.w3.org/2000/svg">
<path d="M15 26.25V22.5C15 20.5109 15.7902 18.6032 17.1967 17.1967C18.6032 15.7902 20.5109 15 22.5 15H30M15 63.75V67.5C15 69.4891 15.7902 71.3968 17.1967 72.8033C18.6032 74.2098 20.5109 75 22.5 75H30M60 15H67.5C69.4891 15 71.3968 15.7902 72.8033 17.1967C74.2098 18.6032 75 20.5109 75 22.5V26.25M60 75H67.5C69.4891 75 71.3968 74.2098 72.8033 72.8033C74.2098 71.3968 75 69.4891 75 67.5V63.75M37.5 41.25V48.75M71.25 41.25V48.75M18.75 41.25H22.5V48.75H18.75V41.25ZM52.5 41.25H56.25V48.75H52.5V41.25Z" stroke="#F0C693" stroke-width="2" stroke-linecap="round" stroke-linejoin="round"/>
</svg>
