<svg width="90" height="90" viewBox="0 0 90 90" fill="none" xmlns="http://www.w3.org/2000/svg">
<path d="M11.25 52.5H56.25C58.2391 52.5 60.1468 53.2902 61.5533 54.6967C62.9598 56.1032 63.75 58.0109 63.75 60V71.25C63.75 73.2391 62.9598 75.1468 61.5533 76.5533C60.1468 77.9598 58.2391 78.75 56.25 78.75H18.75C16.7609 78.75 14.8532 77.9598 13.4467 76.5533C12.0402 75.1468 11.25 73.2391 11.25 71.25V33.75C11.25 31.7609 12.0402 29.8532 13.4467 28.4467C14.8532 27.0402 16.7609 26.25 18.75 26.25H30C31.9891 26.25 33.8968 27.0402 35.3033 28.4467C36.7098 29.8532 37.5 31.7609 37.5 33.75V78.75M52.5 15C52.5 14.0054 52.8951 13.0516 53.5984 12.3483C54.3016 11.6451 55.2554 11.25 56.25 11.25H75C75.9946 11.25 76.9484 11.6451 77.6517 12.3483C78.3549 13.0516 78.75 14.0054 78.75 15V33.75C78.75 34.7446 78.3549 35.6984 77.6517 36.4016C76.9484 37.1049 75.9946 37.5 75 37.5H56.25C55.2554 37.5 54.3016 37.1049 53.5984 36.4016C52.8951 35.6984 52.5 34.7446 52.5 33.75V15Z" stroke="#F0C693" stroke-width="2" stroke-linecap="round" stroke-linejoin="round"/>
</svg>
